<?xml version="1.0" encoding="UTF-8"?>
<svg version="1.1" xmlns="http://www.w3.org/2000/svg" width="1024" height="1024">
<path d="M0 0 C337.92 0 675.84 0 1024 0 C1024 337.92 1024 675.84 1024 1024 C686.08 1024 348.16 1024 0 1024 C0 686.08 0 348.16 0 0 Z " fill="#F7F5E6" transform="translate(0,0)"/>
<path d="M0 0 C1.34945642 -0.00576172 1.34945642 -0.00576172 2.72617459 -0.01163983 C4.19508023 -0.01034011 4.19508023 -0.01034011 5.69366074 -0.00901413 C6.74105572 -0.01198525 7.78845071 -0.01495637 8.86758494 -0.01801753 C12.38267736 -0.02669986 15.89773569 -0.02821239 19.41283798 -0.02970505 C21.93096108 -0.03433353 24.44908347 -0.03935823 26.96720505 -0.04475021 C33.81233655 -0.05787281 40.65745683 -0.06435566 47.50259876 -0.06876087 C51.77871766 -0.07152592 56.05483431 -0.07576374 60.33095169 -0.08026505 C72.1761333 -0.09245536 84.02131311 -0.10275529 95.86650085 -0.10614014 C96.62423728 -0.1063597 97.38197371 -0.10657927 98.16267185 -0.10680549 C98.92219385 -0.10702377 99.68171585 -0.10724204 100.46425366 -0.10746694 C102.00326745 -0.1079104 103.54228123 -0.10835696 105.08129501 -0.10880661 C105.84469471 -0.10902804 106.6080944 -0.10924947 107.39462742 -0.10947761 C119.76195507 -0.11342489 132.12922377 -0.13087782 144.49652866 -0.15416613 C157.20146217 -0.17789664 169.90636613 -0.19034275 182.61132216 -0.19150805 C189.74162747 -0.19242384 196.87185594 -0.19815172 204.00214005 -0.21632767 C210.7096633 -0.23336603 217.41701603 -0.2349686 224.12456322 -0.22618866 C226.58477862 -0.22541777 229.04500183 -0.22976777 231.50519753 -0.23964691 C234.86726442 -0.2523546 238.22881409 -0.24649551 241.59087753 -0.23606491 C242.56122507 -0.24412132 243.53157261 -0.25217772 244.53132463 -0.26047826 C256.71815851 -0.17223289 268.58065292 4.79686414 277.51733017 13.11970901 C290.59423716 27.12097118 292.70030519 42.11914356 292.66366196 60.48866653 C292.66740126 62.26495994 292.67200389 64.04125171 292.6773926 65.81754088 C292.68960335 70.68620603 292.6893644 75.55480236 292.68700385 80.42347932 C292.6865952 85.67925333 292.69763942 90.93500543 292.70711899 96.1907692 C292.72371921 106.48303938 292.72922809 116.77528665 292.73034374 127.06756911 C292.73129465 135.43490509 292.73540704 143.80223352 292.741745 152.16956711 C292.75935444 175.90101873 292.76858428 199.63245227 292.76708405 223.36391047 C292.76700413 224.64280153 292.76692422 225.92169259 292.76684189 227.23933792 C292.76676013 228.51979334 292.76667837 229.80024876 292.76659413 231.11950585 C292.76578123 251.87096571 292.78492069 272.62235298 292.81311862 293.37379184 C292.84185449 314.68956863 292.85565854 336.00531002 292.85393107 357.32110667 C292.85326743 369.28496285 292.8587484 381.24874292 292.88028717 393.21258163 C292.89850813 403.39865776 292.90283869 413.58462328 292.88926832 423.77070865 C292.88274347 428.96524266 292.88260422 434.15956453 292.89997482 439.35407829 C292.91573158 444.11505048 292.91281527 448.87564276 292.89540656 453.63660583 C292.89234242 455.35324756 292.89594682 457.06991782 292.90712671 458.78652588 C293.01102295 475.87966119 289.29015076 490.32707733 277.43529892 503.25252151 C266.50148819 513.32754634 253.84125156 517.28503612 239.34678268 517.27186966 C238.32600571 517.27484078 237.30522873 517.2778119 236.25351912 517.28087306 C232.82834564 517.28955407 229.40320714 517.29106782 225.97802353 517.29256058 C223.52388052 517.29718924 221.06973823 517.30221396 218.61559677 517.30760574 C211.94381097 517.32072867 205.27203884 517.32721164 198.60024333 517.3316164 C194.43063718 517.33438217 190.26103334 517.33862019 186.09142876 517.34312057 C174.53705968 517.35531242 162.98269244 517.36561109 151.42831707 517.36899567 C150.689141 517.36921523 149.94996492 517.3694348 149.18838957 517.36966102 C148.07703067 517.36998843 148.07703067 517.36998843 146.94322008 517.37032247 C145.44196316 517.37076593 143.94070623 517.37121249 142.43944931 517.37166214 C141.3224457 517.37199428 141.3224457 517.37199428 140.18287636 517.37233314 C128.12796792 517.37627759 116.07312007 517.39372118 104.01823502 517.41702166 C91.62856042 517.44077498 79.23891616 517.45319937 66.84921843 517.45436358 C59.89822786 517.45527824 52.94731618 517.46097746 45.99634743 517.4791832 C39.45380703 517.49625922 32.91138944 517.49780711 26.36882401 517.48904419 C23.97275835 517.48827511 21.57668458 517.49259937 19.18063927 517.50250244 C0.18484594 517.57638357 -16.05328656 516.99499661 -30.41626358 502.88142776 C-43.88932216 488.60228876 -46.21989362 472.9857732 -46.11169815 454.13531876 C-46.11631698 452.36280608 -46.12267645 450.59029724 -46.13060713 448.81779629 C-46.14718853 443.98733384 -46.13910544 439.15719057 -46.12666225 434.32672751 C-46.11756799 429.1017045 -46.13160305 423.87673429 -46.14258194 418.65172195 C-46.16032484 408.43209482 -46.15654616 398.2125855 -46.14493138 387.99295383 C-46.13588115 379.68440192 -46.13467992 371.37588293 -46.13902664 363.0673275 C-46.13963957 361.882772 -46.14025251 360.69821649 -46.14088401 359.47776537 C-46.14216297 357.07103561 -46.14345982 354.66430586 -46.14477438 352.25757612 C-46.15616766 329.71480494 -46.14308586 307.17209894 -46.12157291 284.62933845 C-46.10370077 265.30358626 -46.10680946 245.97793018 -46.12524796 226.65217972 C-46.14667278 204.1860202 -46.15507157 181.71991773 -46.1427989 159.25374943 C-46.14152476 156.85640372 -46.14026728 154.459058 -46.13902664 152.06171227 C-46.13840954 150.88230375 -46.13779244 149.70289523 -46.13715664 148.48774705 C-46.13370875 140.19255757 -46.13951992 131.89740439 -46.14894485 123.60222054 C-46.16018402 113.48840382 -46.15708435 103.37471122 -46.13582188 93.26090866 C-46.12533769 88.10469711 -46.12114474 82.94869222 -46.13441849 77.79248238 C-46.14640263 73.06560722 -46.1396812 68.33912885 -46.11850828 63.61228932 C-46.11406765 61.90927367 -46.11625081 60.20622397 -46.12601143 58.5032305 C-46.21880457 40.95687635 -42.69590459 26.89692325 -30.66626358 13.44392776 C-22.74885226 5.8546993 -11.04229299 0.01778485 0 0 Z " fill="#303B3C" transform="translate(388.60376358032227,226.86857223510742)"/>
<path d="M0 0 C5.46145361 1.55691973 10.89348328 3.17747669 16.3125 4.875 C17.10333984 5.11863281 17.89417969 5.36226563 18.70898438 5.61328125 C22.75733819 6.8827082 26.71428242 8.25399071 30.640625 9.86328125 C36.7566255 12.35675946 43.00353222 14.45502305 49.25668335 16.57287598 C52.28835768 17.6010684 55.31681229 18.63859812 58.34553528 19.67544556 C64.42016366 21.75495145 70.49636064 23.82973558 76.57617188 25.89404297 C81.34909483 27.51542572 86.11777729 29.1488359 90.88430786 30.78890991 C92.7254168 31.4201444 94.56789255 32.04740899 96.41183472 32.6703186 C105.46601184 35.73093953 114.34338921 38.91664598 122.921875 43.15625 C123.56037888 43.46995544 124.19888275 43.78366089 124.85673523 44.10687256 C136.6888681 50.19943625 144.68694555 61.50069255 148.9375 73.9375 C152.28817251 88.58352137 150.21209117 103.14355595 145.83447266 117.26171875 C144.89965894 120.32926427 144.03027603 123.41129873 143.16796875 126.5 C139.65553766 139.05709517 135.94477315 151.54327456 132.07324219 163.99389648 C128.23007623 176.39624582 124.65076088 188.8738983 121.05517578 201.34960938 C119.79328338 205.7151381 118.51587486 210.07600056 117.23681641 214.43652344 C114.60865604 223.3975824 112.05425974 232.37506958 109.5625 241.375 C106.24917203 253.31700043 102.61320807 265.14928631 98.93457031 276.98291016 C95.43509061 288.28034229 92.07862884 299.60911421 88.9597168 311.01733398 C87.29169052 317.06729618 85.47254677 323.0652118 83.625 329.0625 C81.08127499 337.32109479 78.67983889 345.6091223 76.375 353.9375 C74.18417047 361.852059 71.87668519 369.69645463 69.37890625 377.51953125 C67.4617946 383.64295155 65.74936403 389.82710547 64 396 C59.85625431 410.61376243 59.85625431 410.61376243 57.5625 417.8125 C54.92166938 426.10718947 52.5200994 434.46999251 50.10394287 442.83215332 C47.00615729 453.55334258 43.87075308 464.2623953 40.6730957 474.9543457 C39.33899272 479.424619 38.00670231 483.88925158 36.82421875 488.40234375 C33.04431309 502.72865287 25.47060328 515.89210961 12.6875 524.0625 C11.46910193 524.72842607 10.24081341 525.37683593 9 526 C8.030625 526.556875 7.06125 527.11375 6.0625 527.6875 C-9.4413476 534.33200612 -23.74720797 530.43760957 -38.875 525.1875 C-40.52540706 524.63287363 -42.17644741 524.08012809 -43.828125 523.52929688 C-49.57162351 521.60233409 -55.30197757 519.65362459 -60.96801758 517.50805664 C-65.24464719 515.89197129 -69.5634454 514.4158782 -73.89453125 512.953125 C-75.651469 512.35691241 -77.40838535 511.76063679 -79.1652832 511.16430664 C-80.08475739 510.85268585 -81.00423157 510.54106506 -81.9515686 510.22000122 C-103.00819414 503.08073444 -124.01239199 495.79705065 -144.99710083 488.44949341 C-152.76226019 485.73108972 -160.53361229 483.03066077 -168.30981445 480.34399414 C-173.2361481 478.63611123 -178.12504057 476.84969889 -183 475 C-183 474.67 -183 474.34 -183 474 C-182.40937366 473.99945523 -181.81874731 473.99891047 -181.2102232 473.99834919 C-166.74952322 473.98329405 -152.28908211 473.94049841 -137.82856274 473.86790943 C-130.83513691 473.83345288 -123.84190422 473.8079296 -116.84838867 473.80444336 C-110.08542394 473.80104571 -103.32295945 473.77142215 -96.56014442 473.72656822 C-93.99412176 473.71368794 -91.42804085 473.70925146 -88.86198997 473.71384621 C-63.09237651 473.74920577 -41.38978562 470.38686567 -22 452 C-5.39820839 434.71390515 -0.69007396 413.41438132 -0.7215271 390.22590637 C-0.71651744 388.53761631 -0.71063969 386.84932864 -0.70397437 385.1610443 C-0.68824143 380.54544418 -0.6847474 375.92990504 -0.68332577 371.31428134 C-0.67961997 366.32804387 -0.66445862 361.3418394 -0.65071106 356.35562134 C-0.62847142 347.72449403 -0.61343833 339.09337851 -0.60334396 330.46222878 C-0.58873884 317.98314342 -0.56319686 305.50409916 -0.53501268 293.02503797 C-0.489578 272.77703816 -0.45294945 252.52903242 -0.421875 232.28100586 C-0.39167584 212.61563069 -0.35731929 192.95027002 -0.31738281 173.28491211 C-0.31492126 172.07209487 -0.31245972 170.85927763 -0.30992357 169.60970835 C-0.29754871 163.52516818 -0.28509222 157.44062819 -0.27259517 151.35608828 C-0.16907715 100.90407909 -0.07985748 50.45205181 0 0 Z " fill="#C1C3C1" transform="translate(704,293)"/>
<path d="M0 0 C0.00059709 0.84801678 0.00119418 1.69603355 0.00180936 2.56974781 C0.03773396 52.87402396 0.09442 103.17824042 0.17792095 153.48246127 C0.18793794 159.52785805 0.19778215 165.5732551 0.20751953 171.61865234 C0.2094609 172.82213912 0.21140228 174.0256259 0.21340248 175.26558198 C0.24439031 194.73059674 0.26139415 214.19559973 0.27319422 233.6606345 C0.28562245 253.64615426 0.31316158 273.63161238 0.35461307 293.61709321 C0.37970058 305.94077483 0.39312074 318.26435418 0.39142957 330.58806171 C0.39139973 339.04861289 0.40609979 347.50906019 0.43216428 355.96957086 C0.4467549 360.84465725 0.4550609 365.71953064 0.44580269 370.59463501 C0.43744789 375.07006245 0.44785437 379.54506401 0.47233662 384.02042867 C0.47796858 385.62772757 0.47708634 387.23506755 0.46851245 388.84235345 C0.35784624 411.5593947 6.12986986 433.77443299 21.7890625 450.95703125 C34.54638693 462.74515965 51.40016862 472.02724517 69.11897278 472.15821838 C70.12713043 472.1680072 71.13528809 472.17779602 72.17399597 472.18788147 C73.81613823 472.19651466 73.81613823 472.19651466 75.49145508 472.20532227 C76.65286011 472.21522186 77.81426514 472.22512146 79.01086426 472.23532104 C82.8470659 472.26689101 86.68327992 472.2916758 90.51953125 472.31640625 C93.18039877 472.33697966 95.84126066 472.35792909 98.50212097 472.37937927 C104.78826404 472.42922934 111.07443214 472.47419657 117.36062402 472.51740164 C124.51903725 472.56683983 131.67740542 472.62173348 138.83577502 472.67708123 C153.55714058 472.79078323 168.27855105 472.89764778 183 473 C180.52232818 475.47767182 178.50995348 475.97684671 175.1796875 477.05859375 C174.0040625 477.44466797 172.8284375 477.83074219 171.6171875 478.22851562 C170.38226563 478.62748047 169.14734375 479.02644531 167.875 479.4375 C165.45527847 480.22648367 163.03599619 481.01681596 160.6171875 481.80859375 C159.54065918 482.15720459 158.46413086 482.50581543 157.35498047 482.86499023 C154.30501248 483.89681247 151.2994738 485.0164132 148.28875732 486.15641785 C143.56382151 487.89791813 138.78260702 489.47962267 134.01171875 491.08984375 C132.87273636 491.47564102 131.73375397 491.86143829 130.56025696 492.25892639 C126.93641954 493.48634744 123.31202823 494.71212054 119.6875 495.9375 C114.92009171 497.54936383 110.15324864 499.16288446 105.38671875 500.77734375 C103.77055916 501.32285133 103.77055916 501.32285133 102.12174988 501.87937927 C96.2919448 503.85405246 90.49276946 505.89450288 84.71336365 508.01197815 C76.84220315 510.87811759 68.91577447 513.59329462 61.00415039 516.34521484 C58.79783987 517.11340393 56.5921069 517.88325389 54.38696289 518.65478516 C10.70776197 533.93615723 10.70776197 533.93615723 -6.95703125 525.60546875 C-13.59173265 522.09715944 -19.15889245 518.36332214 -23.9375 512.5 C-24.87916016 511.37078125 -24.87916016 511.37078125 -25.83984375 510.21875 C-31.98178926 501.06691799 -35.44148696 491.28573928 -38.4375 480.75 C-38.82667425 479.41351396 -39.21691223 478.07733725 -39.6081543 476.74145508 C-40.38995729 474.06526238 -41.16545809 471.38738683 -41.93457031 468.70751953 C-42.85068107 465.51960525 -43.77673598 462.33499087 -44.7109375 459.15234375 C-45.81391368 455.39215189 -46.91131789 451.63041119 -48.00390625 447.8671875 C-50.57582962 439.01267245 -53.16177388 430.16226118 -55.75 421.3125 C-56.00604004 420.43694458 -56.26208008 419.56138916 -56.52587891 418.65930176 C-60.48375945 405.12992608 -64.48196661 391.61292937 -68.50802612 378.10369873 C-71.58867535 367.7666311 -74.63845336 357.42143307 -77.64746094 347.06323242 C-80.61293319 336.86650101 -83.67262865 326.69846279 -86.74560547 316.53369141 C-89.83751484 306.30444018 -92.8474426 296.05843349 -95.75219727 285.77441406 C-97.3719965 280.08223228 -99.11415642 274.44236734 -100.9375 268.8125 C-103.75609663 260.08796238 -106.11920202 251.26032643 -108.46679688 242.39916992 C-110.3463249 235.33589947 -112.39250788 228.37646729 -114.62890625 221.41796875 C-116.51018343 215.46367662 -118.1738182 209.44509972 -119.875 203.4375 C-122.31573849 194.82819416 -124.80512925 186.24021578 -127.4375 177.6875 C-131.79759565 163.50868563 -135.89428023 149.2540384 -140 135 C-140.30357422 133.94844727 -140.60714844 132.89689453 -140.91992188 131.81347656 C-142.19906736 127.38077956 -143.4696347 122.94626167 -144.71484375 118.50390625 C-145.50851123 115.67940122 -146.34898156 112.88056558 -147.25390625 110.08984375 C-152.09436027 94.32042037 -151.81813167 78.72464002 -144.45703125 63.890625 C-135.74494244 47.86197649 -122.5620845 40.76083528 -105.6640625 35.06640625 C-104.39278527 34.62756163 -103.12190612 34.18756243 -101.85139465 33.74650574 C-98.47661519 32.57830324 -95.0968099 31.42537403 -91.71577072 30.2754364 C-88.19669583 29.07545949 -84.68266511 27.86089551 -81.16821289 26.64746094 C-75.49505995 24.69026039 -69.81945364 22.74035941 -64.14208984 20.79541016 C-56.69757597 18.24408223 -49.26262978 15.6658165 -41.83203125 13.07421875 C-40.75995422 12.70031509 -39.6878772 12.32641144 -38.58331299 11.94117737 C-36.52113303 11.22173063 -34.45899762 10.50215618 -32.39691162 9.78244019 C-27.74358468 8.15904934 -23.08884128 6.53974888 -18.43359375 4.921875 C-17.65836868 4.65207321 -16.88314362 4.38227142 -16.08442688 4.10429382 C-14.68165043 3.61687139 -13.27814585 3.13153684 -11.87374878 2.64880371 C-10.15180467 2.05256384 -8.43695461 1.43593892 -6.72290039 0.81738281 C-4 0 -4 0 0 0 Z " fill="#8AAFC8" transform="translate(320,294)"/>
<path d="M0 0 C5.46288003 1.55182745 10.89358713 3.17750922 16.3125 4.875 C17.10333984 5.11863281 17.89417969 5.36226563 18.70898438 5.61328125 C22.75733819 6.8827082 26.71428242 8.25399071 30.640625 9.86328125 C36.7566255 12.35675946 43.00353222 14.45502305 49.25668335 16.57287598 C52.28835768 17.6010684 55.31681229 18.63859812 58.34553528 19.67544556 C64.42016366 21.75495145 70.49636064 23.82973558 76.57617188 25.89404297 C81.34909483 27.51542572 86.11777729 29.1488359 90.88430786 30.78890991 C92.7254168 31.4201444 94.56789255 32.04740899 96.41183472 32.6703186 C105.46601184 35.73093953 114.34338921 38.91664598 122.921875 43.15625 C123.56037888 43.46995544 124.19888275 43.78366089 124.85673523 44.10687256 C136.6888681 50.19943625 144.68694555 61.50069255 148.9375 73.9375 C152.28817251 88.58352137 150.21209117 103.14355595 145.83447266 117.26171875 C144.89965894 120.32926427 144.03027603 123.41129873 143.16796875 126.5 C139.65553766 139.05709517 135.94477315 151.54327456 132.07324219 163.99389648 C128.23007623 176.39624582 124.65076088 188.8738983 121.05517578 201.34960938 C119.79328338 205.7151381 118.51587486 210.07600056 117.23681641 214.43652344 C114.60865604 223.3975824 112.05425974 232.37506958 109.5625 241.375 C106.24917203 253.31700043 102.61320807 265.14928631 98.93457031 276.98291016 C95.43509061 288.28034229 92.07862884 299.60911421 88.9597168 311.01733398 C87.29169052 317.06729618 85.47254677 323.0652118 83.625 329.0625 C81.08127499 337.32109479 78.67983889 345.6091223 76.375 353.9375 C74.18417047 361.852059 71.87668519 369.69645463 69.37890625 377.51953125 C67.4617946 383.64295155 65.74936403 389.82710547 64 396 C59.85625431 410.61376243 59.85625431 410.61376243 57.5625 417.8125 C54.92166938 426.10718947 52.5200994 434.46999251 50.10394287 442.83215332 C47.00615729 453.55334258 43.87075308 464.2623953 40.6730957 474.9543457 C39.33899272 479.424619 38.00670231 483.88925158 36.82421875 488.40234375 C33.04431309 502.72865287 25.47060328 515.89210961 12.6875 524.0625 C11.46910193 524.72842607 10.24081341 525.37683593 9 526 C8.030625 526.556875 7.06125 527.11375 6.0625 527.6875 C-9.4413476 534.33200612 -23.74720797 530.43760957 -38.875 525.1875 C-40.52540706 524.63287363 -42.17644741 524.08012809 -43.828125 523.52929688 C-49.57162351 521.60233409 -55.30197757 519.65362459 -60.96801758 517.50805664 C-65.24464719 515.89197129 -69.5634454 514.4158782 -73.89453125 512.953125 C-75.651469 512.35691241 -77.40838535 511.76063679 -79.1652832 511.16430664 C-80.08475739 510.85268585 -81.00423157 510.54106506 -81.9515686 510.22000122 C-100.41309964 503.96060344 -118.84067172 497.60829063 -137.23779297 491.16210938 C-138.97883935 490.55207821 -140.71988749 489.94205205 -142.4609375 489.33203125 C-143.70736526 488.89517502 -143.70736526 488.89517502 -144.97897339 488.44949341 C-149.86642119 486.73889585 -154.76088101 485.05168872 -159.6640625 483.38671875 C-160.75098389 483.01603271 -161.83790527 482.64534668 -162.95776367 482.26342773 C-164.85690469 481.6175175 -166.7579327 480.97711072 -168.66137695 480.34399414 C-169.462771 480.07063232 -170.26416504 479.79727051 -171.08984375 479.515625 C-171.75878662 479.29165039 -172.42772949 479.06767578 -173.11694336 478.83691406 C-175.34629624 477.84609056 -177.07141931 476.48328068 -179 475 C-165.82966616 474.8604092 -152.65951101 474.75408011 -139.48858547 474.68912697 C-133.37143588 474.65793796 -127.25479586 474.61569314 -121.13793945 474.54736328 C-115.22454447 474.4817266 -109.31163676 474.4462007 -103.39790535 474.43073654 C-101.15223594 474.41972935 -98.90659041 474.39823665 -96.66113091 474.36561966 C-83.22310442 474.17834999 -73.12179362 475.02467643 -61 481 C-58.9256417 481.75276018 -56.84092967 482.47832669 -54.7421875 483.16015625 C-53.77321533 483.47654053 -52.80424316 483.7929248 -51.8059082 484.11889648 C-50.8387085 484.43028564 -49.87150879 484.7416748 -48.875 485.0625 C-41.31600001 487.53288127 -33.85351625 490.08466488 -26.48828125 493.08984375 C-20.4972541 495.28122417 -14.32131775 495.67761556 -8 495 C-0.73321281 491.3666064 1.45286175 486.38389019 4 479 C5.11913715 475.39093355 6.15430157 471.75947324 7.1875 468.125 C9.69472588 459.40565021 12.30172727 450.72455016 15 442.0625 C18.00631935 432.39204004 20.80268302 422.67879397 23.49169922 412.91577148 C25.23957318 406.60589642 27.10987875 400.35438124 29.125 394.125 C31.01657327 388.26686971 32.7314646 382.40308078 34.25 376.4375 C36.57280199 367.33137198 39.21041822 358.32299687 41.875 349.3125 C42.09524841 348.56758301 42.31549683 347.82266602 42.54241943 347.05517578 C43.42234518 344.08055243 44.30292816 341.1061251 45.18460083 338.13201904 C46.93143695 332.23867984 48.65857497 326.33977021 50.375 320.4375 C54.09829245 307.64904678 57.84239539 294.86669387 61.58618164 282.08422852 C63.7574251 274.66985491 65.92855974 267.25549762 68.08203125 259.8359375 C70.82368407 250.39055442 73.61103442 240.96397395 76.5 231.5625 C79.25573919 222.59447605 81.81034868 213.58152553 84.30688477 204.53833008 C86.38473099 197.06511161 88.62271465 189.65292969 90.9375 182.25 C94.18992363 171.83957526 97.13592294 161.36656705 99.99316406 150.84155273 C102.24068385 142.61516713 104.6513556 134.45429061 107.1875 126.3125 C108.16113978 123.1699122 109.13417913 120.02713928 110.10693359 116.88427734 C110.68110423 115.02991651 111.25682258 113.17603381 111.83447266 111.32275391 C116.89423251 96.58276701 116.89423251 96.58276701 114.99609375 81.66796875 C108.85907023 72.2438785 96.18019066 69.48203045 86.125 66.125 C84.81866279 65.68283335 83.51259512 65.23986963 82.20678711 64.79614258 C79.62716763 63.91994005 77.04662428 63.04655421 74.46533203 62.17529297 C70.15238539 60.71252524 65.85612839 59.20579195 61.5625 57.6875 C51.56229514 54.16939514 41.53007362 50.74425203 31.5 47.3125 C30.6751712 47.03014496 29.85034241 46.74778992 29.0005188 46.45687866 C26.59430493 45.6333999 24.18783961 44.81066125 21.78125 43.98828125 C21.01856308 43.72744247 20.25587616 43.4666037 19.47007751 43.19786072 C14.01864625 41.3372383 8.55265854 39.52449502 3.07226562 37.75073242 C1 37 1 37 0 36 C-0.08855161 33.3337397 -0.11524673 30.69352886 -0.09765625 28.02734375 C-0.09553383 26.83087975 -0.09553383 26.83087975 -0.09336853 25.61024475 C-0.08775316 23.05262565 -0.07519812 20.49509282 -0.0625 17.9375 C-0.05748698 16.20768355 -0.05292373 14.47786574 -0.04882812 12.74804688 C-0.03777875 8.49866447 -0.02050386 4.24934688 0 0 Z " fill="#A1A7A1" transform="translate(704,293)"/>
<path d="M0 0 C0 11.55 0 23.1 0 35 C-37.31912378 48.53159452 -37.31912378 48.53159452 -54.3125 54.125 C-64.57723901 57.51677783 -74.83301158 60.93127461 -85.0484314 64.46917725 C-86.53399942 64.98151389 -88.02112502 65.48936085 -89.50991821 65.99224854 C-103.73781215 70.50767543 -103.73781215 70.50767543 -114.5625 80.25 C-118.66797439 88.86205165 -115.01665818 98.82761886 -112.5 107.375 C-111.95114892 109.2965938 -111.40230207 111.21818881 -110.85372925 113.13986206 C-110.2863856 115.11871181 -109.71284141 117.09567076 -109.13769531 119.07226562 C-108.03710769 122.86008432 -106.96516372 126.65561995 -105.8984375 130.453125 C-102.83448304 141.33387476 -99.68816257 152.1710255 -96.21386719 162.92797852 C-93.85157563 170.30974221 -91.80724783 177.77323113 -89.74804688 185.24414062 C-87.61358237 192.93661993 -85.31632618 200.56733624 -82.9375 208.1875 C-80.17644219 217.03841059 -77.61193159 225.91522527 -75.22070312 234.87255859 C-72.64492073 244.45844795 -69.71187727 253.92957429 -66.79199219 263.41503906 C-64.1628578 271.99619656 -61.66992443 280.61712373 -59.23046875 289.25390625 C-55.7812818 301.44831682 -52.23498613 313.59650466 -48.4375 325.6875 C-45.2967866 335.6883513 -42.31547131 345.71524589 -39.55834961 355.82885742 C-37.86333444 362.02388387 -36.05838336 368.1796415 -34.203125 374.328125 C-30.85597793 385.42165059 -27.64081032 396.55173466 -24.4375 407.6875 C-23.33265619 411.52491982 -22.22716063 415.36215128 -21.12109375 419.19921875 C-20.85412689 420.12541519 -20.58716003 421.05161163 -20.31210327 422.00587463 C-18.27701275 429.0582891 -16.21459553 436.10235059 -14.13696289 443.14233398 C-13.06231498 446.78392846 -11.99918347 450.42882198 -10.9375 454.07421875 C-6.79484736 468.3082678 -6.79484736 468.3082678 -2.3125 482.4375 C-1.97863281 483.44683594 -1.64476562 484.45617187 -1.30078125 485.49609375 C0.92721988 489.78482866 4.63673833 492.14032243 9 494 C17.76420808 495.31633416 25.31783527 492.63561172 33.4375 489.625 C34.53642578 489.23183594 35.63535156 488.83867188 36.76757812 488.43359375 C37.93611328 488.01464844 39.10464844 487.59570312 40.30859375 487.1640625 C41.27619125 486.83180161 41.27619125 486.83180161 42.26333618 486.49282837 C46.42815958 485.03482738 50.36980682 483.36106871 54.34326172 481.43896484 C77.47391349 470.95095171 101.7836176 472.8385393 126.66949463 473.31335449 C132.69727097 473.41713463 138.72548703 473.46163446 144.75390625 473.51171875 C156.50373401 473.61777586 168.2516458 473.78758982 180 474 C177.65189694 476.34810306 175.98112278 476.82177857 172.8359375 477.83984375 C171.79566406 478.18080078 170.75539063 478.52175781 169.68359375 478.87304688 C168.59175781 479.22431641 167.49992187 479.57558594 166.375 479.9375 C164.23651874 480.63269988 162.09848809 481.32928756 159.9609375 482.02734375 C159.01009277 482.33406006 158.05924805 482.64077637 157.07958984 482.95678711 C154.13003999 483.95594888 151.22423921 485.04709311 148.31182861 486.14872742 C143.57871825 487.89157594 138.79032579 489.47701752 134.01171875 491.08984375 C132.87273636 491.47564102 131.73375397 491.86143829 130.56025696 492.25892639 C126.93641954 493.48634744 123.31202823 494.71212054 119.6875 495.9375 C114.92009171 497.54936383 110.15324864 499.16288446 105.38671875 500.77734375 C103.77055916 501.32285133 103.77055916 501.32285133 102.12174988 501.87937927 C96.2919448 503.85405246 90.49276946 505.89450288 84.71336365 508.01197815 C76.84220315 510.87811759 68.91577447 513.59329462 61.00415039 516.34521484 C58.79783987 517.11340393 56.5921069 517.88325389 54.38696289 518.65478516 C10.70776197 533.93615723 10.70776197 533.93615723 -6.95703125 525.60546875 C-13.59173265 522.09715944 -19.15889245 518.36332214 -23.9375 512.5 C-24.87916016 511.37078125 -24.87916016 511.37078125 -25.83984375 510.21875 C-31.98178926 501.06691799 -35.44148696 491.28573928 -38.4375 480.75 C-38.82667425 479.41351396 -39.21691223 478.07733725 -39.6081543 476.74145508 C-40.38995729 474.06526238 -41.16545809 471.38738683 -41.93457031 468.70751953 C-42.85068107 465.51960525 -43.77673598 462.33499087 -44.7109375 459.15234375 C-45.81391368 455.39215189 -46.91131789 451.63041119 -48.00390625 447.8671875 C-50.57582962 439.01267245 -53.16177388 430.16226118 -55.75 421.3125 C-56.00604004 420.43694458 -56.26208008 419.56138916 -56.52587891 418.65930176 C-60.48375945 405.12992608 -64.48196661 391.61292937 -68.50802612 378.10369873 C-71.58867535 367.7666311 -74.63845336 357.42143307 -77.64746094 347.06323242 C-80.61293319 336.86650101 -83.67262865 326.69846279 -86.74560547 316.53369141 C-89.83751484 306.30444018 -92.8474426 296.05843349 -95.75219727 285.77441406 C-97.3719965 280.08223228 -99.11415642 274.44236734 -100.9375 268.8125 C-103.75609663 260.08796238 -106.11920202 251.26032643 -108.46679688 242.39916992 C-110.3463249 235.33589947 -112.39250788 228.37646729 -114.62890625 221.41796875 C-116.51018343 215.46367662 -118.1738182 209.44509972 -119.875 203.4375 C-122.31573849 194.82819416 -124.80512925 186.24021578 -127.4375 177.6875 C-131.79759565 163.50868563 -135.89428023 149.2540384 -140 135 C-140.30357422 133.94844727 -140.60714844 132.89689453 -140.91992188 131.81347656 C-142.19906736 127.38077956 -143.4696347 122.94626167 -144.71484375 118.50390625 C-145.50851123 115.67940122 -146.34898156 112.88056558 -147.25390625 110.08984375 C-152.09436027 94.32042037 -151.81813167 78.72464002 -144.45703125 63.890625 C-135.74494244 47.86197649 -122.5620845 40.76083528 -105.6640625 35.06640625 C-104.39278527 34.62756163 -103.12190612 34.18756243 -101.85139465 33.74650574 C-98.47661519 32.57830324 -95.0968099 31.42537403 -91.71577072 30.2754364 C-88.19669583 29.07545949 -84.68266511 27.86089551 -81.16821289 26.64746094 C-75.49505995 24.69026039 -69.81945364 22.74035941 -64.14208984 20.79541016 C-56.69757597 18.24408223 -49.26262978 15.6658165 -41.83203125 13.07421875 C-40.75995422 12.70031509 -39.6878772 12.32641144 -38.58331299 11.94117737 C-36.52113303 11.22173063 -34.45899762 10.50215618 -32.39691162 9.78244019 C-27.74358468 8.15904934 -23.08884128 6.53974888 -18.43359375 4.921875 C-17.65836868 4.65207321 -16.88314362 4.38227142 -16.08442688 4.10429382 C-14.68165043 3.61687139 -13.27814585 3.13153684 -11.87374878 2.64880371 C-10.15180467 2.05256384 -8.43695461 1.43593892 -6.72290039 0.81738281 C-4 0 -4 0 0 0 Z " fill="#6593B1" transform="translate(320,294)"/>
<path d="M0 0 C0.33 0 0.66 0 1 0 C3.52107168 8.73641096 3.27629739 17.40688245 3.24723816 26.41107178 C3.24882755 28.19306573 3.25129245 29.97505908 3.25455457 31.75705075 C3.26095482 36.64117136 3.25491019 41.5252088 3.24679029 46.40932393 C3.24020291 51.68129693 3.24516398 56.95326079 3.24867249 62.22523499 C3.2537106 72.54691369 3.24807802 82.86856033 3.23882218 93.19023505 C3.22843393 105.20682491 3.22850848 117.22340785 3.22899476 129.24000135 C3.22949525 150.67579543 3.22033681 172.11157459 3.20581055 193.54736328 C3.19171636 214.35628532 3.18464009 235.16519422 3.18530273 255.97412109 C3.18534269 257.25632466 3.18538265 258.53852823 3.18542381 259.85958645 C3.18546417 261.13955691 3.18550452 262.41952738 3.1855461 263.73828483 C3.18623556 287.42070367 3.18034901 311.10311692 3.17139288 334.78553395 C3.1683743 343.16602092 3.16731307 351.54650687 3.16686058 359.92699432 C3.16617913 370.13376466 3.16172388 380.34052557 3.15252777 390.5472919 C3.14790463 395.75696267 3.1448662 400.96662137 3.14612198 406.17629433 C3.14721499 410.94166339 3.14371102 415.70700574 3.13647345 420.47236922 C3.13465656 422.19963305 3.13453329 423.92689963 3.13624074 425.65416357 C3.13829981 427.9957456 3.1342517 430.33723958 3.12863445 432.67881393 C3.12793003 433.98131238 3.1272256 435.28381082 3.12649983 436.62577891 C3.01668149 439.5550425 2.68451 442.1581837 2 445 C1.01 444.67 0.02 444.34 -1 444 C-2.00748843 439.83547136 -2.13931421 435.81981965 -2.12304783 431.5599699 C-2.12420167 430.81638138 -2.12535552 430.07279286 -2.12654433 429.30667135 C-2.12919775 426.80726429 -2.12469929 424.30792124 -2.12025452 421.80851746 C-2.12069048 420.00166427 -2.12156585 418.19481114 -2.12284368 416.38795835 C-2.12508373 411.41675929 -2.12107402 406.4455817 -2.11606562 401.47438538 C-2.11175431 396.11586833 -2.11320803 390.75735253 -2.1139679 385.39883423 C-2.1144927 376.11279704 -2.11135045 366.82676686 -2.10573006 357.54073143 C-2.09760915 344.11461875 -2.09499923 330.68850946 -2.09374207 317.26239458 C-2.09155248 295.48034772 -2.08489491 273.6983046 -2.07543945 251.91625977 C-2.06626293 230.75480162 -2.05918327 209.5933445 -2.05493164 188.43188477 C-2.05466892 187.12788132 -2.05440619 185.82387787 -2.05413551 184.48035916 C-2.05283049 177.9386732 -2.05156678 171.39698723 -2.05032361 164.85530126 C-2.03995389 110.57019826 -2.0223381 56.28509931 -2 2 C-1.34 2 -0.68 2 0 2 C0 1.34 0 0.68 0 0 Z " fill="#3A4443" transform="translate(678,261)"/>
<path d="M0 0 C0.66 0.33 1.32 0.66 2 1 C1.83753786 1.67090516 1.67507572 2.34181033 1.50769049 3.03304595 C0.90899287 6.5318476 0.86351053 9.93474282 0.87695217 13.47126484 C0.87579833 14.21823011 0.87464448 14.96519538 0.87345567 15.73479596 C0.87080214 18.24568972 0.8753008 20.75651977 0.87974548 23.26741028 C0.87930952 25.08251307 0.87843416 26.8976158 0.87715632 28.71271819 C0.87491622 33.70672036 0.87892605 38.70070115 0.88393438 43.6947006 C0.88824562 49.07775776 0.88679197 54.46081367 0.8860321 59.84387207 C0.8855073 69.1724711 0.88864959 78.50106314 0.89426994 87.82966042 C0.90239079 101.31731128 0.90500077 114.80495876 0.90625793 128.2926118 C0.90844753 150.17448726 0.91510512 172.05635899 0.92456055 193.93823242 C0.93373705 215.19669577 0.94081672 236.45515811 0.94506836 257.71362305 C0.94533108 259.02360049 0.94559381 260.33357793 0.94586449 261.68325166 C0.94716951 268.25490576 0.94843322 274.82655987 0.94967639 281.39821398 C0.96004613 335.93214523 0.97766195 390.46607244 1 445 C1.66 445 2.32 445 3 445 C2.14285714 453.57142857 2.14285714 453.57142857 0 457 C-0.99 456.67 -1.98 456.34 -3 456 C-2.34 454.35 -1.68 452.7 -1 451 C-0.34 451 0.32 451 1 451 C0.34 450.34 -0.32 449.68 -1 449 C-1.26450634 446.35276508 -1.26450634 446.35276508 -1.28520203 442.92219543 C-1.29781067 441.62536835 -1.31041931 440.32854126 -1.32341003 438.99241638 C-1.32737032 437.54678396 -1.33113254 436.10115098 -1.3347168 434.65551758 C-1.34564758 433.13949974 -1.35743769 431.62348789 -1.37002563 430.10748291 C-1.40169527 425.98124942 -1.42089647 421.85504138 -1.43764853 417.72872376 C-1.45697683 413.41177493 -1.48671619 409.09489697 -1.51509094 404.77799988 C-1.56120749 397.52219178 -1.5995821 390.26637489 -1.63305664 383.01049805 C-1.67178724 374.62856834 -1.72104936 366.24675399 -1.77638692 357.86491853 C-1.82951061 349.80146328 -1.87665651 341.7379851 -1.92057228 333.67447472 C-1.93926634 330.24442017 -1.95976348 326.81438343 -1.98166466 323.38434792 C-2.00711542 319.33870929 -2.02723193 315.2930772 -2.043293 311.24739075 C-2.04997757 309.76515485 -2.05840857 308.2829256 -2.06874657 306.80071068 C-2.08258784 304.77140862 -2.08932591 302.74206187 -2.0957489 300.71272278 C-2.1014474 299.57874967 -2.1071459 298.44477655 -2.11301708 297.27644062 C-2 294 -2 294 -1.43151569 290.20545483 C-0.70920323 287.11280503 -0.70920323 287.11280503 -2 285 C-2.08948149 283.46102678 -2.11543444 281.91816006 -2.11022377 280.37659645 C-2.10934812 279.39624699 -2.10847247 278.41589753 -2.10757029 277.40584052 C-2.10144862 276.32103821 -2.09532695 275.2362359 -2.08901978 274.11856079 C-2.08649621 272.97219599 -2.08397265 271.82583119 -2.08137262 270.64472806 C-2.07330604 267.45310084 -2.06069225 264.26152811 -2.04618168 261.06992483 C-2.03163092 257.63155264 -2.02285666 254.19316516 -2.01335144 250.754776 C-1.99377043 244.01458106 -1.96872351 237.27441688 -1.9417484 230.53424789 C-1.91992752 225.05712256 -1.90007214 219.57999341 -1.88163376 214.10285568 C-1.87901163 213.32440505 -1.8763895 212.54595441 -1.87368792 211.74391436 C-1.86837046 210.16266337 -1.86305767 208.58141236 -1.85774951 207.00016133 C-1.80769347 192.15767075 -1.75147019 177.31520839 -1.69314377 162.47274832 C-1.64321491 149.73119507 -1.59849949 136.98963226 -1.55761719 124.24804688 C-1.51017587 109.46310732 -1.45954677 94.67818443 -1.40379179 79.89327371 C-1.39785646 78.31710777 -1.3919251 76.74094182 -1.38599777 75.16477585 C-1.38307939 74.38921369 -1.380161 73.61365153 -1.37715418 72.81458748 C-1.35678687 67.34367819 -1.33870264 61.87276406 -1.32149124 56.40184402 C-1.30045376 49.73496729 -1.27590808 43.06811454 -1.24684478 36.40126778 C-1.23209821 32.99831302 -1.21893928 29.59537167 -1.21003914 26.19239616 C-1.19955482 22.50669744 -1.18304277 18.82107454 -1.16494751 15.13540649 C-1.16328728 14.05506563 -1.16162706 12.97472476 -1.15991652 11.86164629 C-1.15382538 10.87608134 -1.14773423 9.89051639 -1.14145851 8.87508583 C-1.1382584 8.02407755 -1.13505828 7.17306928 -1.13176119 6.29627287 C-1.00410966 4.07162133 -0.61866837 2.13542507 0 0 Z " fill="#283335" transform="translate(676,258)"/>
<path d="M0 0 C0.33 0 0.66 0 1 0 C1.00173625 0.90411613 1.0034725 1.80823226 1.00526136 2.73974586 C1.10821067 56.28309288 1.21630608 109.82642739 1.33111694 163.36975037 C1.3448871 169.79370068 1.35861411 176.21765109 1.37231445 182.64160156 C1.37504276 183.92053544 1.37777106 185.19946932 1.38058204 186.51715878 C1.42469945 207.24613532 1.46531847 227.97511733 1.50465261 248.70410344 C1.54506782 269.96192441 1.58922396 291.21973522 1.63687855 312.47754121 C1.66618325 325.60275093 1.69254343 338.72795987 1.71517897 351.85318282 C1.73096406 360.84435234 1.75037124 369.83550942 1.77266841 378.82666513 C1.78543896 384.01994339 1.79657263 389.21321204 1.80341911 394.40650177 C1.80971585 399.15614693 1.82053625 403.90575899 1.8350333 408.655386 C1.83947909 410.3781878 1.84223062 412.10099492 1.84316199 413.8238022 C1.84466537 416.15709807 1.85221582 418.49029739 1.8613348 420.82357407 C1.86399284 422.1222176 1.86665089 423.42086112 1.86938947 424.75885749 C1.89654772 428.16213997 1.89654772 428.16213997 3 432 C3.33 428.04 3.66 424.08 4 420 C4.33 420 4.66 420 5 420 C5.05425226 422.39614126 5.09379027 424.79103853 5.125 427.1875 C5.15013672 428.19780273 5.15013672 428.19780273 5.17578125 429.22851562 C5.21538674 433.28807807 4.80020002 436.34998815 3 440 C2.34 439.67 1.68 439.34 1 439 C-1.73887513 430.41624442 -1.27607873 421.54690721 -1.24723816 412.63793945 C-1.24882756 410.86134433 -1.25129245 409.08474981 -1.25455457 407.30815697 C-1.26095454 402.43911695 -1.25491045 397.57016037 -1.24679029 392.70112586 C-1.24020289 387.44558943 -1.24516393 382.19006216 -1.24867249 376.93452454 C-1.25371017 366.6462727 -1.24807891 356.35805304 -1.23882218 346.0698052 C-1.22843609 334.09618987 -1.2285084 322.12258149 -1.22899476 310.1489625 C-1.22949521 288.79510231 -1.22033712 267.44125712 -1.20581055 246.08740234 C-1.19170932 225.34814176 -1.18464039 204.60889435 -1.18530273 183.86962891 C-1.18534269 182.59113772 -1.18538265 181.31264653 -1.18542381 179.99541318 C-1.18546417 178.71916723 -1.18550452 177.44292128 -1.1855461 176.12800121 C-1.18623501 152.53387821 -1.18035307 128.93976083 -1.17139288 105.34563965 C-1.16837116 96.99032412 -1.16731271 88.63500962 -1.16686058 80.2796936 C-1.16618012 70.11013862 -1.16173852 59.94059312 -1.15252777 49.77104217 C-1.14789561 44.57806911 -1.1448695 39.38510821 -1.14612198 34.19213295 C-1.14721108 29.44671096 -1.14373533 24.70131595 -1.13647345 19.9558996 C-1.13464919 18.23139871 -1.13454034 16.50689506 -1.13624074 14.78239405 C-1.13828374 12.45414997 -1.13428146 10.12599618 -1.12863445 7.79776001 C-1.12793003 6.49981821 -1.1272256 5.20187641 -1.12649983 3.86460304 C-1 1 -1 1 0 0 Z " fill="#3D4544" transform="translate(344,269)"/>
<path d="M0 0 C0.99 0.495 0.99 0.495 2 1 C3.68719626 12.16766141 3.14890964 23.8481942 3.14526367 35.11474609 C3.14826345 36.98770209 3.15166784 38.86065747 3.15544128 40.73361206 C3.16420494 45.77969936 3.16661623 50.82576966 3.16725707 55.87186384 C3.16797224 59.03891262 3.17011539 62.20595719 3.17275429 65.37300491 C3.18198444 76.46335368 3.18609235 87.55369049 3.18530273 98.64404297 C3.18470348 108.91342567 3.19523146 119.18275559 3.2110464 129.45212495 C3.22421156 138.32323555 3.22948286 147.19432909 3.22884732 156.06544936 C3.22859484 161.33939134 3.23130537 166.6132864 3.24202538 171.88721848 C3.28211196 193.01484828 3.3098781 213.96936468 1 235 C0.67 235 0.34 235 0 235 C0 157.45 0 79.9 0 0 Z " fill="#263132" transform="translate(347,466)"/>
<path d="M0 0 C0.99 0 1.98 0 3 0 C4.32848722 12.37102828 4.14470893 24.75854895 4.1328125 37.18359375 C4.13391382 39.57765215 4.13534543 41.97171041 4.13708496 44.36576843 C4.13997769 50.74234229 4.13571056 57.11889021 4.12897491 63.49546051 C4.12499987 67.43762715 4.12248843 71.37979245 4.12030029 75.32196045 C4.1003522 106.51830832 4.04910757 137.71493901 3.6521225 168.90910721 C3.62501492 171.12378137 3.60142318 173.33846927 3.57867432 175.55319214 C3.53656424 179.55915141 3.4771033 183.5646275 3.4140625 187.5703125 C3.40250122 188.72287033 3.39093994 189.87542816 3.37902832 191.06291199 C3.34923889 192.60982475 3.34923889 192.60982475 3.31884766 194.18798828 C3.30552399 195.07720978 3.29220032 195.96643127 3.2784729 196.88259888 C3 199 3 199 1 201 C0.86949291 175.38347307 0.73910153 149.76694555 0.60884857 124.15041733 C0.54836955 112.2566907 0.48785242 100.36296426 0.42724609 88.46923828 C0.37443246 78.10477462 0.32168979 67.7403106 0.26903296 57.37584615 C0.24113956 51.88606951 0.21321021 46.39629305 0.18519592 40.90651703 C0.15884349 35.74218349 0.13258575 30.57784948 0.10640144 25.41351509 C0.09676177 23.51560257 0.08708715 21.61769022 0.07737541 19.71977806 C0.06414465 17.13315247 0.0510384 14.54652628 0.03796387 11.9598999 C0.03407292 11.20503445 0.03018197 10.45016901 0.02617311 9.67242885 C0.0099943 6.44821204 0 3.22427123 0 0 Z " fill="#263032" transform="translate(346,261)"/>
<path d="M0 0 C-8.35137991 3.62963455 -16.77848224 6.69336899 -25.4375 9.5 C-28.0965551 10.37177476 -30.7537096 11.24921753 -33.41015625 12.12890625 C-34.447771 12.47248924 -34.447771 12.47248924 -35.50634766 12.82301331 C-43.83172639 15.59203876 -52.10216534 18.51607599 -60.375 21.4375 C-61.9300358 21.98535517 -63.48513017 22.5330441 -65.0402832 23.08056641 C-71.26568828 25.27280948 -77.49086547 27.46565979 -83.71289062 29.66748047 C-87.47310227 30.99725994 -91.2364854 32.31767855 -95.0022583 33.63162231 C-96.40768431 34.12379823 -97.81196485 34.6192584 -99.21502686 35.11813354 C-101.14300288 35.8032674 -103.07530877 36.47618063 -105.0078125 37.1484375 C-106.09723145 37.53177246 -107.18665039 37.91510742 -108.30908203 38.31005859 C-111 39 -111 39 -114 38 C-107.28571429 32 -107.28571429 32 -102.3125 32 C-101.65636719 32.05800781 -101.00023437 32.11601563 -100.32421875 32.17578125 C-95.92358385 31.84296012 -92.14557505 29.44388471 -88.23828125 27.51953125 C-84.684359 25.8518886 -81.19704374 24.7528085 -77.421875 23.72265625 C-73.8810936 22.66613277 -70.52227818 21.22383351 -67.12890625 19.76953125 C-65 19 -65 19 -62 19 C-62 18.34 -62 17.68 -62 17 C-60.2675 16.8453125 -60.2675 16.8453125 -58.5 16.6875 C-54.86660766 16.23014992 -51.69819715 15.27718507 -48.29296875 13.890625 C-44.41082085 12.38273791 -40.41628765 11.203574 -36.44140625 9.96484375 C-33.84907325 9.25435979 -33.84907325 9.25435979 -33 7 C-30.67750658 6.59802999 -28.34114367 6.27313343 -26 6 C-24.33065717 5.68033861 -22.6626783 5.35268934 -21 5 C-21 4.34 -21 3.68 -21 3 C-18.69 3.33 -16.38 3.66 -14 4 C-13.67 3.01 -13.34 2.02 -13 1 C-11.20994059 0.63779734 -9.41787943 0.28547531 -7.625 -0.0625 C-6.62726563 -0.25972656 -5.62953125 -0.45695313 -4.6015625 -0.66015625 C-2 -1 -2 -1 0 0 Z " fill="#7090A1" transform="translate(490,772)"/>
<path d="M0 0 C-2.81095691 1.87397127 -4.9958669 2.79415251 -8.16723633 3.86010742 C-9.22296341 4.21775681 -10.27869049 4.57540619 -11.3664093 4.94389343 C-12.51006454 5.32721329 -13.65371979 5.71053314 -14.83203125 6.10546875 C-17.26508261 6.93262318 -19.69802163 7.76010812 -22.13085938 8.58789062 C-25.95557678 9.88503239 -29.78174 11.17778185 -33.61010742 12.46411133 C-66.34666951 22.74563831 -66.34666951 22.74563831 -88.375 47.59765625 C-93.00024067 57.2817539 -93.61947463 66.42401901 -94 77 C-94.33 77 -94.66 77 -95 77 C-96.88450091 61.65153473 -94.06683797 49.60025696 -85.4375 36.65625 C-84.963125 36.1096875 -84.48875 35.563125 -84 35 C-83.34 35 -82.68 35 -82 35 C-82 34.34 -82 33.68 -82 33 C-81.34 33 -80.68 33 -80 33 C-80 32.34 -80 31.68 -80 31 C-79.34 31 -78.68 31 -78 31 C-77.67 30.01 -77.34 29.02 -77 28 C-75.22265625 26.61328125 -75.22265625 26.61328125 -73.0625 25.3125 C-72.35222656 24.87550781 -71.64195312 24.43851562 -70.91015625 23.98828125 C-69 23 -69 23 -67 23 C-67 22.34 -67 21.68 -67 21 C-65.68 21 -64.36 21 -63 21 C-63 20.34 -63 19.68 -63 19 C-62.071875 18.938125 -61.14375 18.87625 -60.1875 18.8125 C-55.56423606 18.18977465 -51.68819063 16.12437241 -47.55078125 14.05859375 C-45 13 -45 13 -41 13 C-41 12.34 -41 11.68 -41 11 C-39.845 10.79375 -38.69 10.5875 -37.5 10.375 C-32.85727495 9.35711549 -28.54600474 7.77036726 -24.125 6.0625 C-7.73306471 -0.2472383 -7.73306471 -0.2472383 0 0 Z M-97 65 C-96.67 65 -96.34 65 -96 65 C-96 66.65 -96 68.3 -96 70 C-96.33 70 -96.66 70 -97 70 C-97 68.35 -97 66.7 -97 65 Z " fill="#E9F4F3" transform="translate(264,312)"/>
<path d="M0 0 C1.24136719 0.42152344 2.48273438 0.84304688 3.76171875 1.27734375 C5.40359178 1.83088951 7.04552188 2.38426604 8.6875 2.9375 C9.50412109 3.21529297 10.32074219 3.49308594 11.16210938 3.77929688 C11.95810547 4.04677734 12.75410156 4.31425781 13.57421875 4.58984375 C14.30213623 4.83597412 15.03005371 5.08210449 15.7800293 5.33569336 C19.91498919 6.57304361 23.80613607 7.12633892 28.11897278 7.15821838 C29.12713043 7.1680072 30.13528809 7.17779602 31.17399597 7.18788147 C32.26875748 7.19363693 33.36351898 7.1993924 34.49145508 7.20532227 C35.65286011 7.21522186 36.81426514 7.22512146 38.01086426 7.23532104 C41.8470659 7.26689101 45.68327992 7.2916758 49.51953125 7.31640625 C52.18039877 7.33697966 54.84126066 7.35792909 57.50212097 7.37937927 C63.78826404 7.42922934 70.07443214 7.47419657 76.36062402 7.51740164 C83.51903725 7.56683983 90.67740542 7.62173348 97.83577502 7.67708123 C112.55714058 7.79078323 127.27855105 7.89764778 142 8 C138.79014721 10.13990186 137.9707827 10.25067042 134.28253174 10.25396729 C133.31248199 10.25960693 132.34243225 10.26524658 131.34298706 10.27105713 C130.28008453 10.26700867 129.21718201 10.26296021 128.12207031 10.25878906 C126.44115799 10.26404602 126.44115799 10.26404602 124.72628784 10.26940918 C121.0101711 10.27823372 117.29424379 10.2723731 113.578125 10.265625 C110.99843306 10.26697182 108.41874136 10.26891249 105.83905029 10.27142334 C100.4252254 10.2743759 95.0114719 10.27026449 89.59765625 10.26074219 C83.34984676 10.24987946 77.10216804 10.25336701 70.85436177 10.264395 C64.8363689 10.27459022 58.81843964 10.27347755 52.80043793 10.26763153 C50.24400565 10.26629825 47.68757004 10.2679315 45.13114166 10.27259064 C41.55250778 10.27767928 37.97412317 10.26991141 34.39550781 10.25878906 C32.81329941 10.26486176 32.81329941 10.26486176 31.1991272 10.27105713 C25.70687568 10.23949344 21.19938008 9.76797222 16 8 C12.34162748 7.32741929 8.68068526 6.686363 5.01171875 6.07421875 C2 5 2 5 0.58203125 2.39453125 C0.38996094 1.60433594 0.19789063 0.81414063 0 0 Z " fill="#9BB0B7" transform="translate(361,759)"/>
<path d="M0 0 C3 2 3 2 3.51171875 3.9453125 C3.67447917 5.96354167 3.83723958 7.98177083 4 10 C4.66 10 5.32 10 6 10 C6.12375 11.03125 6.2475 12.0625 6.375 13.125 C6.94402206 16.65293679 7.83326917 19.63706996 9 23 C9.34451782 24.35136447 9.67732806 25.70575342 10 27.0625 C10.75177197 30.17101743 11.71491791 33.06266951 13 36 C13.66 36 14.32 36 15 36 C14.938125 37.27875 14.87625 38.5575 14.8125 39.875 C14.79061933 44.49911392 15.81262239 48.3024301 17.34375 52.640625 C18.05342944 55.19209157 18.11214748 57.36453412 18 60 C18.66 60 19.32 60 20 60 C20.19916016 60.95712891 20.19916016 60.95712891 20.40234375 61.93359375 C20.57894531 62.75988281 20.75554687 63.58617187 20.9375 64.4375 C21.11152344 65.26121094 21.28554688 66.08492187 21.46484375 66.93359375 C21.80752994 68.97661204 21.80752994 68.97661204 23 70 C23.45459858 72.65463121 23.70243238 75.32189138 24 78 C23.01 78.495 23.01 78.495 22 79 C11.38187892 42.940154 11.38187892 42.940154 7.34912109 29.04980469 C6.07322357 24.65837921 4.78536155 20.27159122 3.4609375 15.89453125 C3.2235083 15.10506104 2.9860791 14.31559082 2.74145508 13.50219727 C2.30585899 12.0572588 1.86596715 10.61360436 1.4206543 9.17163086 C0.44010184 5.90994657 0 3.45458082 0 0 Z " fill="#6A8CA0" transform="translate(235,612)"/>
<path d="M0 0 C2.50298434 2.93828597 3.46930939 5.17902761 4 9 C4.66 9 5.32 9 6 9 C9 14.625 9 14.625 9 18 C9.99 18 10.98 18 12 18 C12.12375 18.928125 12.12375 18.928125 12.25 19.875 C12.78597843 22.14390805 12.78597843 22.14390805 14.8125 23 C15.534375 23.33 16.25625 23.66 17 24 C17.61875 24.639375 18.2375 25.27875 18.875 25.9375 C21.38526827 28.37393685 23.82908334 29.54137834 27 31 C27.928125 31.53625 28.85625 32.0725 29.8125 32.625 C33.85740312 34.36986017 37.63713511 34.7188376 42 35 C42 35.66 42 36.32 42 37 C46.64586892 36.51515724 46.64586892 36.51515724 51 35 C53.69565202 35.16780163 56.32405554 35.61155645 59 36 C55.65337694 39.34662306 52.02401362 39.1767135 47.4375 39.25 C34.75930733 39.09613844 23.58216331 34.25516485 14 26 C7.53185801 19.12058886 0 9.77563255 0 0 Z " fill="#7290A1" transform="translate(286,785)"/>
<path d="M0 0 C-10.12414045 3.86729588 -20.30208467 7.5820958 -30.5 11.25 C-31.70430664 11.68618652 -32.90861328 12.12237305 -34.14941406 12.57177734 C-40.05724235 14.68829672 -45.87247556 16.63495743 -52 18 C-52 16.68 -52 15.36 -52 14 C-51.29875 13.89042969 -50.5975 13.78085937 -49.875 13.66796875 C-44.72144735 12.80670927 -39.92091408 11.81236345 -35.078125 9.84375 C-32.65976272 8.86185855 -30.21020801 7.99661655 -27.75 7.125 C-23.67992058 5.66090199 -19.71786085 4.03355964 -15.75 2.3125 C-5.7316366 -1.91054553 -5.7316366 -1.91054553 0 0 Z " fill="#EBF6F3" transform="translate(320,293)"/>
<path d="M0 0 C2.32937432 3.49406148 3.19872069 6.93307377 4.25 10.9375 C6.09502383 17.7874482 8.05798773 24.58882582 10.125 31.375 C13.63457197 43.03370866 13.63457197 43.03370866 15 48 C15.37125 49.3303125 15.37125 49.3303125 15.75 50.6875 C16.0474465 53.43888012 15.454314 54.69020717 14 57 C13.75765625 55.98421875 13.5153125 54.9684375 13.265625 53.921875 C11.73512385 47.60151499 10.20466931 41.3342144 8.0625 35.1875 C5.19656092 26.94223875 3.14374791 18.45572316 1 10 C0.8146167 9.32195313 0.6292334 8.64390625 0.43823242 7.9453125 C-0.16175402 5.28197437 -0.06179879 2.71914684 0 0 Z " fill="#E5F1F3" transform="translate(222,572)"/>
<path d="M0 0 C0.66 0 1.32 0 2 0 C2.24234375 0.87140625 2.4846875 1.7428125 2.734375 2.640625 C5.59194555 16.30523126 5.59194555 16.30523126 12 28 C12.1953125 30.8203125 12.1953125 30.8203125 12.125 34.125 C12.10695312 35.22070312 12.08890625 36.31640625 12.0703125 37.4453125 C12.03550781 38.70988281 12.03550781 38.70988281 12 40 C9.32762687 36.8607241 8.26814689 34.10846551 7.24609375 30.1328125 C6.94896484 28.99972656 6.65183594 27.86664062 6.34570312 26.69921875 C5.89614258 24.92998047 5.89614258 24.92998047 5.4375 23.125 C4.83356138 20.79387388 4.22814044 18.46313118 3.62109375 16.1328125 C3.22555298 14.58424561 3.22555298 14.58424561 2.82202148 13.00439453 C2.25620642 10.93640518 1.60963333 8.8893891 0.89868164 6.86669922 C0 4 0 4 0 0 Z " fill="#6D8EA0" transform="translate(207,517)"/>
<path d="M0 0 C0.52110352 0.37108887 1.04220703 0.74217773 1.57910156 1.12451172 C-1.1236871 3.82730038 -3.75889431 4.13142585 -7.42089844 5.12451172 C-10.6857539 6.19380621 -10.6857539 6.19380621 -13.42089844 8.12451172 C-14.78214844 8.06263672 -14.78214844 8.06263672 -16.17089844 7.99951172 C-19.44163334 7.86429561 -19.44163334 7.86429561 -21.92089844 9.62451172 C-24.95601222 11.44557999 -26.94251079 11.36718993 -30.42089844 11.12451172 C-30.75089844 10.46451172 -31.08089844 9.80451172 -31.42089844 9.12451172 C-27.37082228 7.64435424 -23.31424531 6.18422803 -19.25048828 4.7421875 C-17.8693016 4.24892971 -16.4900334 3.75026504 -15.11279297 3.24609375 C-13.13176295 2.52195372 -11.14462822 1.81759242 -9.15527344 1.11669922 C-7.9612793 0.68728027 -6.76728516 0.25786133 -5.53710938 -0.18457031 C-2.42089844 -0.87548828 -2.42089844 -0.87548828 0 0 Z " fill="#E7F3EF" transform="translate(407.4208984375,801.87548828125)"/>
<path d="M0 0 C2.9689841 2.9689841 3.24830209 6.46037819 4.21875 10.46875 C4.82682808 13.13824211 4.82682808 13.13824211 7 15 C7.71927295 17.31765729 8.3909893 19.65095874 9 22 C9.33 22 9.66 22 10 22 C10.66 27.94 11.32 33.88 12 40 C9.38060626 37.38060626 8.93995638 35.07069398 7.87109375 31.5234375 C7.5792495 30.5573204 7.5792495 30.5573204 7.2815094 29.57168579 C6.87079101 28.20580092 6.46331677 26.83893697 6.05883789 25.47119141 C5.44520266 23.40098625 4.81814742 21.33520579 4.18945312 19.26953125 C2.26599305 12.87156294 0.48967695 6.68366081 0 0 Z " fill="#6E8FA2" transform="translate(193,469)"/>
<path d="M0 0 C-2.24766788 3.43065098 -4.51306576 4.92444391 -8 7 C-12.62586068 11.03280161 -15.74136695 15.86009427 -19 21 C-19.99 20.67 -20.98 20.34 -22 20 C-8.42957746 -2.80985915 -8.42957746 -2.80985915 0 0 Z " fill="#7596A8" transform="translate(197,339)"/>
<path d="M0 0 C3.16971114 2.45396991 3.94656124 3.64967922 4.5625 7.6875 C4.61792969 8.38359375 4.67335937 9.0796875 4.73046875 9.796875 C5.30591728 14.50054124 7.2200436 18.95176667 8.8984375 23.359375 C10.59249686 27.99084005 11.38916001 31.07479631 10 36 C7.84905849 32.2036378 6.75382037 28.10551943 5.5625 23.9375 C5.34440674 23.18251221 5.12631348 22.42752441 4.90161133 21.6496582 C4.46584689 20.13617942 4.03213366 18.62210839 3.60058594 17.10742188 C3.07490056 15.2628218 2.54195719 13.42029329 2.0078125 11.578125 C1.73710937 10.62421875 1.46640625 9.6703125 1.1875 8.6875 C0.83751953 7.45580078 0.83751953 7.45580078 0.48046875 6.19921875 C0 4 0 4 0 0 Z " fill="#7796A6" transform="translate(223,571)"/>
<path d="M0 0 C1.66666667 1.66666667 3.33333333 3.33333333 5 5 C5.8971875 5.8353125 5.8971875 5.8353125 6.8125 6.6875 C8 8 8 8 8 10 C8.56203125 10.26941406 9.1240625 10.53882813 9.703125 10.81640625 C12.1404611 12.07238047 14.42599347 13.48314559 16.75 14.9375 C22.54897335 18.43908921 28.24539562 20.94459307 35 22 C35 22.33 35 22.66 35 23 C25.01686907 23.86809834 17.3026603 19.0422383 9.5625 13.16015625 C5.98357246 10.14316398 2.56272397 6.94467068 0 3 C0 2.01 0 1.02 0 0 Z " fill="#E7F4F5" transform="translate(292,801)"/>
<path d="M0 0 C2.30701402 4.3964793 3.71536312 8.95934272 5.1875 13.6875 C5.47302734 14.54794922 5.75855469 15.40839844 6.05273438 16.29492188 C7.92258743 22.33213598 8.09220829 26.76873074 7 33 C6.67 33 6.34 33 6 33 C5.87882813 32.26394531 5.75765625 31.52789062 5.6328125 30.76953125 C5.46523437 29.79371094 5.29765625 28.81789063 5.125 27.8125 C4.96257812 26.84957031 4.80015625 25.88664062 4.6328125 24.89453125 C4.01426342 22.06524192 3.25183458 19.61030692 2 17 C1.34 16.67 0.68 16.34 0 16 C0 14.35 0 12.7 0 11 C0.66 11 1.32 11 2 11 C2 10.01 2 9.02 2 8 C1.34 8 0.68 8 0 8 C0 5.36 0 2.72 0 0 Z " fill="#E6F1EF" transform="translate(176,415)"/>
<path d="M0 0 C-1.2065625 0.9590625 -1.2065625 0.9590625 -2.4375 1.9375 C-4.2750504 3.40603502 -4.2750504 3.40603502 -6 5 C-7.6396875 5.2165625 -7.6396875 5.2165625 -9.3125 5.4375 C-12.81235747 5.77816969 -12.81235747 5.77816969 -15 7 C-17.9488944 8.4744472 -20.7368282 8.75828357 -24 9 C-24.66 8.34 -25.32 7.68 -26 7 C-22.23437016 5.63104454 -18.46177806 4.28240931 -14.6875 2.9375 C-13.61564453 2.54755859 -12.54378906 2.15761719 -11.43945312 1.75585938 C-10.41142578 1.39169922 -9.38339844 1.02753906 -8.32421875 0.65234375 C-7.37635498 0.31195068 -6.42849121 -0.02844238 -5.4519043 -0.37915039 C-3 -1 -3 -1 0 0 Z " fill="#7796A9" transform="translate(250,319)"/>
<path d="M0 0 C1.24136719 0.42152344 2.48273438 0.84304688 3.76171875 1.27734375 C5.40359178 1.83088951 7.04552188 2.38426604 8.6875 2.9375 C9.50412109 3.21529297 10.32074219 3.49308594 11.16210938 3.77929688 C17.77971752 6.00302755 23.82575697 7.15466141 30.8125 7.5625 C31.85180664 7.62727539 31.85180664 7.62727539 32.91210938 7.69335938 C34.60788686 7.79861453 36.30392052 7.89972863 38 8 C38 8.33 38 8.66 38 9 C35.64640498 9.22415191 33.29351589 9.42959058 30.9375 9.625 C29.62652344 9.74101563 28.31554687 9.85703125 26.96484375 9.9765625 C22.8461897 10.00090922 19.90251182 9.24651337 16 8 C12.34162748 7.32741929 8.68068526 6.686363 5.01171875 6.07421875 C2 5 2 5 0.58203125 2.39453125 C0.38996094 1.60433594 0.19789063 0.81414063 0 0 Z " fill="#9FB5BF" transform="translate(361,759)"/>
<path d="M0 0 C0.66 0 1.32 0 2 0 C1.835 0.61875 1.67 1.2375 1.5 1.875 C0.91882495 5.50734405 1.01887504 8.929996 1.16015625 12.59765625 C0.98466376 15.23004356 0.24334905 16.7060692 -1 19 C-1.25069913 21.62570704 -1.25069913 21.62570704 -1 24 C-0.67 24.33 -0.34 24.66 0 25 C0.04063832 26.66617115 0.042721 28.33388095 0 30 C-0.99 30 -1.98 30 -3 30 C-3.61916858 8.18621465 -3.61916858 8.18621465 0 0 Z " fill="#7292A4" transform="translate(173,363)"/>
<path d="M0 0 C-3.65099999 3.65099999 -9.11227761 4.58839507 -13.9375 6.1875 C-15.04802734 6.56841797 -16.15855469 6.94933594 -17.30273438 7.34179688 C-18.36685547 7.69693359 -19.43097656 8.05207031 -20.52734375 8.41796875 C-21.99288696 8.90946411 -21.99288696 8.90946411 -23.48803711 9.41088867 C-26 10 -26 10 -29 9 C-28.34 9 -27.68 9 -27 9 C-27 8.34 -27 7.68 -27 7 C-26.38253906 6.81824219 -25.76507813 6.63648438 -25.12890625 6.44921875 C-19.37924463 4.74269818 -13.67898981 2.92783703 -8 1 C-5.07175348 0.02391783 -3.04386724 -0.08226668 0 0 Z " fill="#6F8F9E" transform="translate(375,811)"/>
<path d="M0 0 C2.7915438 4.18731571 3.81283964 8.62780599 5.1875 13.4375 C5.47302734 14.39205078 5.75855469 15.34660156 6.05273438 16.33007812 C6.31763672 17.25111328 6.58253906 18.17214844 6.85546875 19.12109375 C7.09934326 19.9608374 7.34321777 20.80058105 7.59448242 21.66577148 C8.02479333 24.14271464 7.79591328 25.63945925 7 28 C5.7172041 25.61766476 4.81455513 23.40889449 4 20.8125 C3.32012508 17.87134522 3.32012508 17.87134522 1 17 C0.67 11.39 0.34 5.78 0 0 Z " fill="#E1EBEC" transform="translate(258,694)"/>
<path d="M0 0 C-2.55244714 3.11965762 -5.20268836 3.86080651 -9 5 C-9.7425 5.37125 -10.485 5.7425 -11.25 6.125 C-15.45379702 7.46257178 -19.62413532 7.15294284 -24 7 C-20.35109873 4.56739916 -16.67266928 3.27918509 -12.5625 1.8125 C-11.79873047 1.52697266 -11.03496094 1.24144531 -10.24804688 0.94726562 C-9.50748047 0.68236328 -8.76691406 0.41746094 -8.00390625 0.14453125 C-7.33174072 -0.09934326 -6.6595752 -0.34321777 -5.96704102 -0.59448242 C-3.6667154 -1.06870867 -2.21127747 -0.72228276 0 0 Z " fill="#7796A8" transform="translate(288,306)"/>
<path d="M0 0 C0 0.99 0 1.98 0 3 C-3.20440738 4.86923764 -6.41354705 5.65962464 -9.98828125 6.4921875 C-12.20263257 7.01384754 -12.20263257 7.01384754 -15.0625 8.125 C-18.48186877 9.14353538 -21.45130495 9.1419478 -25 9 C-22.36041882 7.24027922 -20.35251231 6.30410254 -17.40234375 5.2734375 C-16.07686523 4.809375 -16.07686523 4.809375 -14.72460938 4.3359375 C-13.80486328 4.01882813 -12.88511719 3.70171875 -11.9375 3.375 C-10.55208008 2.88773438 -10.55208008 2.88773438 -9.13867188 2.390625 C-2.26311384 0 -2.26311384 0 0 0 Z " fill="#E3EFED" transform="translate(491,772)"/>
<path d="M0 0 C-1.21484375 1.98046875 -1.21484375 1.98046875 -3 4 C-5.12890625 4.42578125 -5.12890625 4.42578125 -7.5625 4.3125 C-8.87927734 4.25642578 -8.87927734 4.25642578 -10.22265625 4.19921875 C-11.13917969 4.13347656 -12.05570312 4.06773437 -13 4 C-13.92683594 3.94457031 -14.85367187 3.88914062 -15.80859375 3.83203125 C-22.69791667 3.30208333 -22.69791667 3.30208333 -25 1 C-22.33349537 0.83031334 -19.66684474 0.66418179 -17 0.5 C-16.25621094 0.45230469 -15.51242187 0.40460937 -14.74609375 0.35546875 C-9.82037776 0.05564256 -4.93485224 -0.04486229 0 0 Z " fill="#F1F9F7" transform="translate(347,823)"/>
<path d="M0 0 C0.7734375 0.7115625 0.7734375 0.7115625 1.5625 1.4375 C4.66782675 3.42809407 7.36632504 3.65060818 11 4 C12 7 12 7 11 10 C13.97 10.495 13.97 10.495 17 11 C17.33 11.99 17.66 12.98 18 14 C10.74178892 13.54636181 4.61615472 7.19317406 0 2 C0 1.34 0 0.68 0 0 Z " fill="#283130" transform="translate(356,725)"/>
<path d="M0 0 C1.80711821 2.71067731 2.59731014 4.53818562 3.5078125 7.59765625 C3.90419922 8.92313477 3.90419922 8.92313477 4.30859375 10.27539062 C4.57800781 11.19513672 4.84742188 12.11488281 5.125 13.0625 C5.54072266 14.44791992 5.54072266 14.44791992 5.96484375 15.86132812 C8 22.72371459 8 22.72371459 8 25 C7.34 25 6.68 25 6 25 C5.01 22.03 4.02 19.06 3 16 C2.34 16 1.68 16 1 16 C0.67 10.72 0.34 5.44 0 0 Z " fill="#DDECEE" transform="translate(279,766)"/>
<path d="M0 0 C3.58614213 3.58614213 4.32270259 7.03315232 5 12 C5.33 12 5.66 12 6 12 C6 15.3 6 18.6 6 22 C3.03319058 19.03319058 2.46240549 15.52983775 1.3125 11.5625 C1.07466797 10.78583984 0.83683594 10.00917969 0.59179688 9.20898438 C0.37201172 8.46068359 0.15222656 7.71238281 -0.07421875 6.94140625 C-0.27619873 6.25763916 -0.47817871 5.57387207 -0.6862793 4.86938477 C-1 3 -1 3 0 0 Z " fill="#708FA1" transform="translate(259,691)"/>
<path d="M0 0 C1.85783261 2.78674892 2.61251226 4.6523134 3.5078125 7.81640625 C3.77207031 8.74517578 4.03632813 9.67394531 4.30859375 10.63085938 C4.57800781 11.59830078 4.84742188 12.56574219 5.125 13.5625 C5.40214844 14.53380859 5.67929687 15.50511719 5.96484375 16.50585938 C8 23.71913485 8 23.71913485 8 26 C7.34 26 6.68 26 6 26 C0.23404255 8.85106383 0.23404255 8.85106383 0 0 Z " fill="#DFEBEE" transform="translate(270,735)"/>
<path d="M0 0 C2.24538034 3.84344382 3.1026736 7.9638019 4.125 12.25 C4.30675781 12.99507812 4.48851562 13.74015625 4.67578125 14.5078125 C5.12147499 16.3375026 5.56131959 18.16861575 6 20 C5.34 20.33 4.68 20.66 4 21 C3.49242138 19.58603098 2.99425075 18.16868271 2.5 16.75 C2.2215625 15.96109375 1.943125 15.1721875 1.65625 14.359375 C1 12 1 12 1 8 C0.01 7.67 -0.98 7.34 -2 7 C-1.34 4.69 -0.68 2.38 0 0 Z " fill="#DDE9ED" transform="translate(252,673)"/>
<path d="M0 0 C2.75203995 2.66151232 5.1793024 5.39422156 7.5 8.4375 C8.10328125 9.22253906 8.7065625 10.00757813 9.328125 10.81640625 C10.15570313 11.89728516 10.15570313 11.89728516 11 13 C13.21587598 15.83139708 15.39246948 18.52284601 18 21 C15 21 15 21 12.6953125 18.875 C0 4.67477204 0 4.67477204 0 0 Z " fill="#9BB1BA" transform="translate(329,729)"/>
<path d="M0 0 C-3.22199255 3.22199255 -6.22270667 4.88020994 -10.83984375 5.19140625 C-13.56605592 5.18789761 -16.27711463 5.13081478 -19 5 C-15.74333969 3.26573029 -12.42547821 2.00973663 -8.9375 0.8125 C-7.37322266 0.26529297 -7.37322266 0.26529297 -5.77734375 -0.29296875 C-3 -1 -3 -1 0 0 Z " fill="#E1EEEC" transform="translate(362,818)"/>
<path d="M0 0 C1.99702766 2.99554149 2.63509599 5.41007981 3.41796875 8.87890625 C3.99401048 10.97817243 4.78384856 12.7424286 5.75 14.6875 C7 18 7 18 6.1875 20.9375 C5.5996875 21.9584375 5.5996875 21.9584375 5 23 C4.67 23 4.34 23 4 23 C3.13240448 19.73257727 2.28326557 16.46063519 1.4375 13.1875 C1.19064453 12.25873047 0.94378906 11.32996094 0.68945312 10.37304688 C0.46064453 9.48037109 0.23183594 8.58769531 -0.00390625 7.66796875 C-0.21861572 6.84578857 -0.4333252 6.0236084 -0.65454102 5.17651367 C-1 3 -1 3 0 0 Z " fill="#7391A4" transform="translate(242,632)"/>
<path d="M0 0 C0.99 0.33 1.98 0.66 3 1 C0.61964766 4.8350121 -1.95099695 6.1374586 -6 8 C-7.67623498 8.98387706 -9.34634594 9.97862543 -11 11 C-9.63310446 7.84930578 -8.14342115 5.99108226 -5.5 3.8125 C-4.8915625 3.30332031 -4.283125 2.79414063 -3.65625 2.26953125 C-2 1 -2 1 0 0 Z " fill="#6B8EA1" transform="translate(194,338)"/>
<path d="M0 0 C0 0.66 0 1.32 0 2 C-10.37357631 6.77676538 -10.37357631 6.77676538 -16 5 C-16 4.34 -16 3.68 -16 3 C-14.7625 2.87625 -13.525 2.7525 -12.25 2.625 C-7.74806613 2.07811015 -4.54658225 0 0 0 Z " fill="#65889D" transform="translate(444,786)"/>
<path d="M0 0 C-6.67862176 3.01651083 -12.63927766 5.57534294 -20 6 C-17 4 -17 4 -14 4 C-13.67 3.01 -13.34 2.02 -13 1 C-11.20994059 0.63779734 -9.41787943 0.28547531 -7.625 -0.0625 C-6.12839844 -0.35833984 -6.12839844 -0.35833984 -4.6015625 -0.66015625 C-2 -1 -2 -1 0 0 Z " fill="#6C8D9E" transform="translate(490,772)"/>
<path d="M0 0 C1.86680725 3.41407092 2.99246672 6.90861303 4.125 10.625 C4.47820312 11.77226563 4.83140625 12.91953125 5.1953125 14.1015625 C6 17 6 17 6 19 C3 18 3 18 1.8515625 15.86328125 C0.87869952 12.59214106 0.5813351 9.59202908 0.375 6.1875 C0.30023438 5.02605469 0.22546875 3.86460937 0.1484375 2.66796875 C0.09945312 1.78753906 0.05046875 0.90710938 0 0 Z " fill="#DBEAEC" transform="translate(210,531)"/>
<path d="M0 0 C-1.59563815 2.62253399 -2.39867267 3.83041985 -5.41015625 4.6796875 C-6.28542969 4.74414062 -7.16070312 4.80859375 -8.0625 4.875 C-9.37927734 4.99488281 -9.37927734 4.99488281 -10.72265625 5.1171875 C-13 5 -13 5 -15 3 C-13.06643218 2.30151736 -11.12797702 1.61655186 -9.1875 0.9375 C-8.10855469 0.55464844 -7.02960938 0.17179687 -5.91796875 -0.22265625 C-3 -1 -3 -1 0 0 Z " fill="#799AAC" transform="translate(313,297)"/>
<path d="M0 0 C2.23071567 1.72700568 3.78607574 3.10004277 4.453125 5.90625 C4.68033075 7.93595473 4.841459 9.96399978 5 12 C5.30169066 13.34084736 5.61517681 14.6806062 6 16 C5.34 16.33 4.68 16.66 4 17 C3.32635339 14.91891315 2.66133202 12.8350329 2 10.75 C1.62875 9.58984375 1.2575 8.4296875 0.875 7.234375 C0 4 0 4 0 0 Z " fill="#6B8D9F" transform="translate(223,571)"/>
<path d="M0 0 C2 1 2 1 2.8515625 3.1796875 C3.23441406 4.51386719 3.23441406 4.51386719 3.625 5.875 C3.88539063 6.75929688 4.14578125 7.64359375 4.4140625 8.5546875 C5 11 5 11 5 14 C4.34 14 3.68 14 3 14 C0.69317618 10.77044665 -0.59450751 7.9535518 -1 4 C-0.5625 1.6875 -0.5625 1.6875 0 0 Z " fill="#E6F0F1" transform="translate(198,493)"/>
<path d="M0 0 C5.28 0 10.56 0 16 0 C11.38649226 3.07567183 6.44961357 3.16513981 1 3 C0.67 2.01 0.34 1.02 0 0 Z " fill="#7A9AAA" transform="translate(482,769)"/>
<path d="M0 0 C6.78982507 0.37035409 11.26884891 2.40476401 17 6 C13.37332639 7.2088912 12.50778047 6.67992092 9.0625 5.25 C8.20785156 4.90453125 7.35320312 4.5590625 6.47265625 4.203125 C4.05322305 3.02589684 2.08847583 1.68628675 0 0 Z " fill="#EDF5F3" transform="translate(356,756)"/>
<path d="M0 0 C0.33 0 0.66 0 1 0 C1.33 5.94 1.66 11.88 2 18 C0.68 17.34 -0.64 16.68 -2 16 C-1.34 10.72 -0.68 5.44 0 0 Z " fill="#F6FCF8" transform="translate(168,377)"/>
<path d="M0 0 C0.66 0 1.32 0 2 0 C2.64622041 2.41656376 3.29199004 4.83324646 3.9375 7.25 C4.11990234 7.93191406 4.30230469 8.61382813 4.49023438 9.31640625 C5.35053121 12.53860894 6.20683134 15.76053223 7 19 C6.34 19 5.68 19 5 19 C4.15919981 16.58570231 3.32718598 14.16896007 2.5 11.75 C2.14228516 10.72712891 2.14228516 10.72712891 1.77734375 9.68359375 C0.60578713 6.23586997 0 3.68297096 0 0 Z " fill="#6B8CA0" transform="translate(265,714)"/>
<path d="M0 0 C0.33 0.99 0.66 1.98 1 3 C-0.5 5.75 -0.5 5.75 -3 8 C-6.75 7.8125 -6.75 7.8125 -10 7 C-6.76478258 4.51137122 -3.40739705 2.24578442 0 0 Z " fill="#E1E5D7" transform="translate(661,733)"/>
<path d="M0 0 C-0.99 0.66 -1.98 1.32 -3 2 C-4.1446875 3.0828125 -4.1446875 3.0828125 -5.3125 4.1875 C-8 6 -8 6 -11.3125 5.75 C-12.199375 5.5025 -13.08625 5.255 -14 5 C-9.94779194 1.59614523 -5.27662976 -1.75887659 0 0 Z " fill="#7998AB" transform="translate(209,333)"/>
<path d="M0 0 C0.99 0.33 1.98 0.66 3 1 C3.33 5.62 3.66 10.24 4 15 C1.44524126 12.44524126 1.16545702 10.42838262 0.3125 6.9375 C0.04050781 5.85339844 -0.23148437 4.76929688 -0.51171875 3.65234375 C-0.67285156 2.77707031 -0.83398438 1.90179687 -1 1 C-0.67 0.67 -0.34 0.34 0 0 Z " fill="#7390A3" transform="translate(275,746)"/>
<path d="M0 0 C1.974667 2.96200051 2.71955354 5.09771632 3.625 8.5 C3.88539063 9.4590625 4.14578125 10.418125 4.4140625 11.40625 C5 14 5 14 5 17 C4.34 17 3.68 17 3 17 C0.70657253 11.10261508 -0.34548714 6.33393082 0 0 Z " fill="#DCECEF" transform="translate(190,463)"/>
<path d="M0 0 C4.20811455 6.31217183 4.20675603 11.80838639 3 19 C2.67 19 2.34 19 2 19 C0.67611771 12.56971459 -0.24794402 6.5705166 0 0 Z " fill="#DCEBEC" transform="translate(180,429)"/>
<path d="M0 0 C0.66 0 1.32 0 2 0 C5.44419134 11.52164009 5.44419134 11.52164009 5 17 C2.71636622 14.71636622 2.2847151 13.25204532 1.375 10.1875 C1.11460937 9.33542969 0.85421875 8.48335938 0.5859375 7.60546875 C-0.0044509 4.98020834 -0.10588413 2.68079363 0 0 Z " fill="#6C8D9E" transform="translate(172,396)"/>
<path d="M0 0 C1.974667 2.96200051 2.71955354 5.09771632 3.625 8.5 C3.88539063 9.4590625 4.14578125 10.418125 4.4140625 11.40625 C5 14 5 14 5 17 C4.34 17 3.68 17 3 17 C2.32741333 14.66836622 1.66152556 12.3347961 1 10 C0.79375 9.319375 0.5875 8.63875 0.375 7.9375 C-0.13961324 5.27866493 -0.06135852 2.69977509 0 0 Z " fill="#DCEBEC" transform="translate(222,572)"/>
<path d="M0 0 C0.99 0 1.98 0 3 0 C3.0825 0.61875 3.165 1.2375 3.25 1.875 C4.24578885 4.69640174 5.36322266 4.71927958 8 6 C10.25 8.625 10.25 8.625 12 11 C7.73176286 10.52575143 5.82507269 8.04238597 3 5 C2.401875 4.443125 1.80375 3.88625 1.1875 3.3125 C0 2 0 2 0 0 Z " fill="#64889C" transform="translate(295,803)"/>
<path d="M0 0 C3.2578125 0.0234375 3.2578125 0.0234375 7.125 0.375 C8.40632813 0.48585938 9.68765625 0.59671875 11.0078125 0.7109375 C11.99523437 0.80632813 12.98265625 0.90171875 14 1 C12 3 12 3 10.01171875 3.23046875 C5.89428074 3.15434805 2.0144786 3.03599448 -2 2 C-1.34 1.34 -0.68 0.68 0 0 Z " fill="#EAF2EE" transform="translate(381,764)"/>
<path d="M0 0 C2.11044382 3.16566573 2.75552077 5.51197415 3.625 9.1875 C3.88539063 10.27417969 4.14578125 11.36085938 4.4140625 12.48046875 C4.60742188 13.31191406 4.80078125 14.14335938 5 15 C4.01 14.67 3.02 14.34 2 14 C0.19113429 9.23982707 -0.20666253 5.06323209 0 0 Z " fill="#DBE9EC" transform="translate(247,657)"/>
<path d="M0 0 C3.7395549 2.71967629 4.26900833 6.68126758 5 11 C5.125 14 5.125 14 5 16 C2.70311431 13.70311431 2.28148697 12.21071829 1.375 9.125 C1.11460937 8.26132812 0.85421875 7.39765625 0.5859375 6.5078125 C0 4 0 4 0 0 Z " fill="#698B9F" transform="translate(180,425)"/>
<path d="M0 0 C1.46067199 0.45082469 2.91848032 0.91093537 4.375 1.375 C5.18710937 1.63023437 5.99921875 1.88546875 6.8359375 2.1484375 C9 3 9 3 11 5 C6.70700357 6.26264601 4.12168689 5.62950412 0 4 C0 2.68 0 1.36 0 0 Z " fill="#3D4542" transform="translate(646,229)"/>
<path d="M0 0 C-2 3 -2 3 -4.375 3.625 C-5.24125 3.74875 -6.1075 3.8725 -7 4 C-8.33542939 4.32483418 -9.66961551 4.6550855 -11 5 C-11 4.01 -11 3.02 -11 2 C-7.17679443 0.57741188 -4.08718695 -0.24042276 0 0 Z " fill="#EDF6F4" transform="translate(373,814)"/>
<path d="M0 0 C-1.28264727 2.56529454 -2.22772349 2.66499863 -4.875 3.625 C-5.57367188 3.88539063 -6.27234375 4.14578125 -6.9921875 4.4140625 C-9 5 -9 5 -12 5 C-11.67 4.01 -11.34 3.02 -11 2 C-7.24092359 0.37676246 -4.07913787 -0.23994929 0 0 Z " fill="#F1F8F4" transform="translate(503,769)"/>
<path d="M0 0 C2.475 0.495 2.475 0.495 5 1 C4.67 3.31 4.34 5.62 4 8 C3.01 7.67 2.02 7.34 1 7 C0.67 4.69 0.34 2.38 0 0 Z " fill="#618AA4" transform="translate(283,776)"/>
<path d="M0 0 C0.66 0 1.32 0 2 0 C2.66 1.32 3.32 2.64 4 4 C0.535 5.485 0.535 5.485 -3 7 C-2.25 2.25 -2.25 2.25 0 0 Z " fill="#ECEDE2" transform="translate(370,227)"/>
<path d="M0 0 C2 1 2 1 3.0625 2.9375 C4.37784905 7.23430691 4.67036215 11.53253967 5 16 C0.91305826 11.91305826 0.67760192 5.53374905 0 0 Z " fill="#E8F6F6" transform="translate(204,515)"/>
<path d="M0 0 C-0.5625 1.9375 -0.5625 1.9375 -2 4 C-5.5 4.875 -5.5 4.875 -9 5 C-9.66 4.34 -10.32 3.68 -11 3 C-9.54293274 2.49632243 -8.08429904 1.99717444 -6.625 1.5 C-5.81289062 1.2215625 -5.00078125 0.943125 -4.1640625 0.65625 C-2 0 -2 0 0 0 Z " fill="#7C9BAC" transform="translate(223,327)"/>
<path d="M0 0 C-2.87164566 2.70272533 -4.30991841 3.94791837 -8.3125 4.25 C-9.199375 4.1675 -10.08625 4.085 -11 4 C-7.35237315 0.18657193 -5.28949249 -0.11498897 0 0 Z " fill="#F2F9F6" transform="translate(417,799)"/>
<path d="M0 0 C3.63 0 7.26 0 11 0 C7.91330796 3.08669204 7.08072342 3.44855089 3 4 C3.33 3.34 3.66 2.68 4 2 C2.68 1.34 1.36 0.68 0 0 Z " fill="#222B2A" transform="translate(645,736)"/>
<path d="M0 0 C2.12046792 3.53411321 2.53199289 6.94393835 3 11 C2.01 11.495 2.01 11.495 1 12 C-0.80619523 7.53763531 -1.11658501 4.68965706 0 0 Z " fill="#DEECED" transform="translate(173,404)"/>
<path d="M0 0 C0.99 0.33 1.98 0.66 3 1 C2.67 1.33 2.34 1.66 2 2 C2.66 2.66 3.32 3.32 4 4 C1.92446352 4.5534764 0.15634036 5 -2 5 C-2.99 5.66 -3.98 6.32 -5 7 C-3.70700306 4.11562221 -2.34058637 2.12780579 0 0 Z " fill="#222B2A" transform="translate(361,238)"/>
<path d="M0 0 C2.93200474 2.85276137 5.64315404 5.65079784 8 9 C4.86493389 8.66410006 3.974751 7.97334828 1.75 5.625 C0 3 0 3 0 0 Z " fill="#D9E9ED" transform="translate(292,801)"/>
<path d="M0 0 C0.33 0.66 0.66 1.32 1 2 C-2.3125 3.125 -2.3125 3.125 -6 4 C-6.99 3.34 -7.98 2.68 -9 2 C-5.5647952 -0.29013653 -4.014669 -0.17842973 0 0 Z " fill="#7A96A6" transform="translate(410,798)"/>
<path d="M0 0 C0.66 0.66 1.32 1.32 2 2 C1.54625 2.433125 1.0925 2.86625 0.625 3.3125 C-1.20024334 5.10798342 -1.20024334 5.10798342 -3 8 C-3.99 7.67 -4.98 7.34 -6 7 C-4.19587357 3.73539027 -3.16605307 2.11070205 0 0 Z " fill="#ECEDE1" transform="translate(678,714)"/>
<path d="M0 0 C0.33 0 0.66 0 1 0 C2.33257403 9.41002278 2.33257403 9.41002278 1 14 C0.67 14 0.34 14 0 14 C-0.19532961 12.2300132 -0.38098882 10.45895721 -0.5625 8.6875 C-0.66691406 7.70136719 -0.77132813 6.71523438 -0.87890625 5.69921875 C-1 3 -1 3 0 0 Z " fill="#9BB2BD" transform="translate(320,698)"/>
<path d="M0 0 C0.66 0.33 1.32 0.66 2 1 C2.6328125 3.06640625 2.6328125 3.06640625 3.125 5.5625 C3.29257812 6.38878906 3.46015625 7.21507812 3.6328125 8.06640625 C3.75398438 8.70449219 3.87515625 9.34257813 4 10 C3.01 10.495 3.01 10.495 2 11 C1.01 7.7 0.02 4.4 -1 1 C-0.67 0.67 -0.34 0.34 0 0 Z " fill="#E4F0F1" transform="translate(254,683)"/>
<path d="M0 0 C-1.0625 1.5625 -1.0625 1.5625 -3 3 C-6.6875 2.6875 -6.6875 2.6875 -10 2 C-6.19832777 -0.53444815 -4.31588991 -1.33941411 0 0 Z " fill="#82A1AF" transform="translate(288,306)"/>
<path d="M0 0 C-0.99 1.485 -0.99 1.485 -2 3 C-4.31 2.67 -6.62 2.34 -9 2 C-4 -1.33333333 -4 -1.33333333 0 0 Z " fill="#DFECE9" transform="translate(440,791)"/>
<path d="M0 0 C4.21073233 1.50383297 5.83237117 4.20664956 8 8 C8 8.99 8 9.98 8 11 C6.84852339 9.73427767 5.70400686 8.46222094 4.5625 7.1875 C3.92441406 6.47980469 3.28632813 5.77210938 2.62890625 5.04296875 C1 3 1 3 0 0 Z " fill="#EDF7F4" transform="translate(332,732)"/>
<path d="M0 0 C0.99 0 1.98 0 3 0 C3 3.3 3 6.6 3 10 C-0.00617269 6.99382731 0.40414684 4.17618402 0 0 Z " fill="#66879C" transform="translate(262,703)"/>
<path d="M0 0 C0.33 0 0.66 0 1 0 C1.33 3.3 1.66 6.6 2 10 C1.01 10.495 1.01 10.495 0 11 C-0.84098656 6.98195309 -1.05404945 3.98196457 0 0 Z " fill="#F6F9F2" transform="translate(183,443)"/>
<path d="M0 0 C2.64 0.33 5.28 0.66 8 1 C8 1.99 8 2.98 8 4 C2.25 2.25 2.25 2.25 0 0 Z " fill="#E2ECE9" transform="translate(356,756)"/>
<path d="M0 0 C2 1 2 1 3.125 3.375 C4 6 4 6 4 9 C3.34 9 2.68 9 2 9 C0.50178941 5.62902617 0 3.79557881 0 0 Z " fill="#66899F" transform="translate(220,561)"/>
<path d="M0 0 C0.66 0.66 1.32 1.32 2 2 C1.8125 4.0625 1.8125 4.0625 1 6 C0.01 6.33 -0.98 6.66 -2 7 C-2.33 6.34 -2.66 5.68 -3 5 C-1.5625 2.375 -1.5625 2.375 0 0 Z " fill="#3E4744" transform="translate(353,246)"/>
<path d="M0 0 C1.65 1.65 3.3 3.3 5 5 C3.35 5.66 1.7 6.32 0 7 C0.2784375 6.1028125 0.2784375 6.1028125 0.5625 5.1875 C1.22093687 2.83591238 1.22093687 2.83591238 0 0 Z " fill="#2C3332" transform="translate(667,243)"/>
<path d="M0 0 C0.99 0.33 1.98 0.66 3 1 C2.67 1.66 2.34 2.32 2 3 C1.34 3 0.68 3 0 3 C-0.33 3.66 -0.66 4.32 -1 5 C-1.99 4.34 -2.98 3.68 -4 3 C-2.1875 1.4375 -2.1875 1.4375 0 0 Z " fill="#6E93A9" transform="translate(376,807)"/>
<path d="M0 0 C0.598125 0.350625 1.19625 0.70125 1.8125 1.0625 C-0.1875 3.0625 -0.1875 3.0625 -2.8125 3.1875 C-3.59625 3.14625 -4.38 3.105 -5.1875 3.0625 C-5.1875 2.0725 -5.1875 1.0825 -5.1875 0.0625 C-2.1875 -0.9375 -2.1875 -0.9375 0 0 Z " fill="#ECF3EF" transform="translate(407.1875,801.9375)"/>
<path d="M0 0 C0.66 0 1.32 0 2 0 C2.66 1.98 3.32 3.96 4 6 C3.01 6.66 2.02 7.32 1 8 C0.67 5.36 0.34 2.72 0 0 Z " fill="#374243" transform="translate(352,716)"/>
<path d="M0 0 C0.33 0 0.66 0 1 0 C1.33 2.64 1.66 5.28 2 8 C1.01 8 0.02 8 -1 8 C-1.33 6.68 -1.66 5.36 -2 4 C-1.34 4 -0.68 4 0 4 C0 2.68 0 1.36 0 0 Z " fill="#F4F9F3" transform="translate(237,625)"/>
<path d="M0 0 C0.99 0.33 1.98 0.66 3 1 C2.67 2.65 2.34 4.3 2 6 C1.01 6.33 0.02 6.66 -1 7 C-0.67 4.69 -0.34 2.38 0 0 Z " fill="#EFEDE1" transform="translate(799,579)"/>
</svg>
